<svg width="29" height="46" viewBox="0 0 29 46" fill="none" xmlns="http://www.w3.org/2000/svg">
<path d="M1 13H7V23.5H1V13ZM11.5 8.5H17.5V28H11.5V8.5Z" fill="#0EC272" stroke="#0EC272" stroke-width="2" stroke-linejoin="round"/>
<path d="M14.5 31V28V31Z" fill="#0EC272"/>
<path d="M14.5 31V28" stroke="#0EC272" stroke-width="2" stroke-linecap="round" stroke-linejoin="round"/>
<path d="M22 7H28V13.75H22V7Z" fill="#0EC272" stroke="#0EC272" stroke-width="2" stroke-linejoin="round"/>
<path d="M4 13V5.5V13ZM25 23.5V13.75V23.5ZM25 7V1V7Z" fill="#0EC272"/>
<path d="M4 13V5.5M25 23.5V13.75M25 7V1" stroke="#0EC272" stroke-width="2" stroke-linecap="round" stroke-linejoin="round"/>
<path d="M10.6387 37.3594C10.6387 38.5996 12.3574 39.5859 13.7344 39.8008L13.5 40.2891C12.2256 40.0547 10.8193 39.3223 10.3066 38.2383C9.78418 39.3223 8.37305 40.0547 7.12305 40.2891L6.87891 39.8008C8.24609 39.5859 9.96484 38.5996 9.96484 37.3594V37.2227H7.13281V36.7148H13.4609V37.2227H10.6387V37.3594ZM14.2324 41.0996V41.627H10.5898V44.752H9.99414V41.627H6.38086V41.0996H14.2324ZM17.9922 37.3984C17.9824 38.7168 18.9883 39.8594 20.2285 40.3086L19.9062 40.7969C18.9053 40.4111 18.0703 39.625 17.6895 38.6094C17.3184 39.6934 16.4785 40.5381 15.4727 40.9531L15.1406 40.4648C16.3906 39.9863 17.3672 38.7656 17.377 37.3984V36.5684H17.9922V37.3984ZM22.1035 41.8027V44.7617H21.4883V42.3105H16.3516V41.8027H22.1035ZM22.1035 36.1484V41.3535H21.4883V36.1484H22.1035Z" fill="#A4A8AC"/>
</svg>
