<svg width="50" height="50" viewBox="0 0 50 50" fill="none" xmlns="http://www.w3.org/2000/svg">
<rect width="50" height="50" rx="10" fill="#FFFED5"/>
<path d="M9.12193 28.0006C11.4699 17.5083 22.5999 18.3612 25.1219 25.0006C36.1215 26.1121 33.178 37.9469 28.1219 38.0006C23.0658 38.0542 12.882 38.2651 9.62193 38.0006C6.36188 37.7361 1.35052 31.7913 9.12193 28.0006Z" fill="white"/>
<path d="M30.6223 16V11M24.1223 19L20.1223 15M37.1223 19L40.6223 15M39.6223 25.5H45.1223M37.1223 32L40.6223 35.5" stroke="#FFBD00" stroke-width="2"/>
<path d="M30.6223 18.5C28.2436 18.5 26.142 19.6865 24.877 21.5C25.8786 23.6985 27.6224 24.5 29.6224 24.5C31.6224 24.5 33.6131 27.8225 34.2299 31.5C36.2627 30.2751 37.6223 28.0463 37.6223 25.5C37.6223 21.634 34.4883 18.5 30.6223 18.5Z" fill="#FFBD00"/>
</svg>
